<svg width="18" height="19" viewBox="0 0 18 19" fill="none" xmlns="http://www.w3.org/2000/svg">
<path fill-rule="evenodd" clip-rule="evenodd" d="M13 0.136719H5C2.23858 0.136719 0 2.38457 0 5.15742V13.1905C0 15.9634 2.23858 18.2113 5 18.2113H13C15.7614 18.2113 18 15.9634 18 13.1905V5.15742C18 2.38457 15.7614 0.136719 13 0.136719ZM16.25 13.1905C16.2445 14.9906 14.7926 16.4485 13 16.454H5C3.20735 16.4485 1.75549 14.9906 1.75 13.1905V5.15742C1.75549 3.35735 3.20735 1.89948 5 1.89397H13C14.7926 1.89948 16.2445 3.35735 16.25 5.15742V13.1905ZM13.75 5.40846C14.3023 5.40846 14.75 4.95888 14.75 4.40432C14.75 3.84975 14.3023 3.40018 13.75 3.40018C13.1977 3.40018 12.75 3.84975 12.75 4.40432C12.75 4.95888 13.1977 5.40846 13.75 5.40846ZM9 4.65535C6.51472 4.65535 4.5 6.67841 4.5 9.17399C4.5 11.6696 6.51472 13.6926 9 13.6926C11.4853 13.6926 13.5 11.6696 13.5 9.17399C13.5027 7.97474 13.0294 6.82386 12.1849 5.97588C11.3404 5.12789 10.1943 4.65268 9 4.65535ZM6.25 9.17399C6.25 10.6991 7.4812 11.9354 9 11.9354C10.5188 11.9354 11.75 10.6991 11.75 9.17399C11.75 7.6489 10.5188 6.4126 9 6.4126C7.4812 6.4126 6.25 7.6489 6.25 9.17399Z" fill="white"/>
</svg>
