<svg width="18" height="19" viewBox="0 0 18 19" fill="none" xmlns="http://www.w3.org/2000/svg">
<path fill-rule="evenodd" clip-rule="evenodd" d="M1.5 0.376953C0.67157 0.376953 0 1.0513 0 1.88316V16.9453C0 17.7771 0.67157 18.4515 1.5 18.4515H16.5C17.3284 18.4515 18 17.7771 18 16.9453V1.88316C18 1.0513 17.3284 0.376953 16.5 0.376953H1.5ZM5.52076 4.39625C5.52639 5.35646 4.81061 5.94812 3.96123 5.94388C3.16107 5.93964 2.46357 5.29997 2.46779 4.39766C2.47201 3.549 3.13998 2.86697 4.00764 2.88674C4.88795 2.90651 5.52639 3.55466 5.52076 4.39625ZM9.2797 7.16671H6.75971H6.7583V15.762H9.4217V15.5615C9.4217 15.18 9.4214 14.7984 9.4211 14.4167C9.4203 13.3987 9.4194 12.3796 9.4246 11.362C9.426 11.1148 9.4372 10.8579 9.5005 10.622C9.7381 9.74087 10.5271 9.17182 11.4074 9.3117C11.9727 9.40056 12.3467 9.72962 12.5042 10.2648C12.6013 10.5994 12.6449 10.9595 12.6491 11.3083C12.6605 12.3603 12.6589 13.4122 12.6573 14.4642C12.6567 14.8356 12.6561 15.2071 12.6561 15.5784V15.7606H15.328V15.5544C15.328 15.1006 15.3278 14.6468 15.3275 14.193C15.327 13.0588 15.3264 11.9247 15.3294 10.7901C15.3308 10.2775 15.276 9.772 15.1508 9.27635C14.9638 8.53921 14.5771 7.9292 13.9485 7.48868C13.5027 7.17518 13.0133 6.97325 12.4663 6.95066C12.404 6.94806 12.3412 6.94466 12.2781 6.94123C11.9984 6.92605 11.7141 6.91063 11.4467 6.96478C10.6817 7.11869 10.0096 7.4703 9.5019 8.09016C9.4429 8.16125 9.3852 8.23345 9.2991 8.3412L9.2797 8.3656V7.16671ZM2.68164 15.7648H5.33242V7.17231H2.68164V15.7648Z" fill="white"/>
</svg>
