<svg width="21" height="15" viewBox="0 0 21 15" fill="none" xmlns="http://www.w3.org/2000/svg">
<path d="M19.607 2.72254C19.4931 2.29994 19.2705 1.91454 18.9614 1.60471C18.6522 1.29487 18.2673 1.0714 17.845 0.956539C16.279 0.526539 10.014 0.519539 10.014 0.519539C10.014 0.519539 3.75 0.512539 2.183 0.923539C1.76093 1.04369 1.37682 1.27032 1.06757 1.58167C0.758311 1.89303 0.534287 2.27866 0.417002 2.70154C0.00400165 4.26754 1.46515e-06 7.51554 1.46515e-06 7.51554C1.46515e-06 7.51554 -0.00399852 10.7795 0.406001 12.3295C0.636001 13.1865 1.311 13.8635 2.169 14.0945C3.751 14.5245 9.999 14.5315 9.999 14.5315C9.999 14.5315 16.264 14.5385 17.83 14.1285C18.2525 14.0139 18.6377 13.7909 18.9477 13.4817C19.2576 13.1725 19.4814 12.7878 19.597 12.3655C20.011 10.8005 20.014 7.55354 20.014 7.55354C20.014 7.55354 20.034 4.28854 19.607 2.72254ZM8.01 10.5245L8.015 4.52454L13.222 7.52954L8.01 10.5245Z" fill="#D9D9D9"/>
</svg>
